<svg xmlns="http://www.w3.org/2000/svg" viewBox="0 0 64 64" role="img" aria-label="Sodeeq Ayobami monogram">
  <defs>
    <linearGradient id="bg" x1="0%" y1="0%" x2="100%" y2="100%">
      <stop offset="0%" stop-color="#fffdf6" />
      <stop offset="100%" stop-color="#d1f3e6" />
    </linearGradient>
  </defs>
  <rect width="64" height="64" rx="14" fill="url(#bg)" />
  <path d="M20 39c2.8 2.2 5.1 3 8 3 3.1 0 5.2-1.2 5.2-3.3 0-1.8-1.4-2.7-5-3.6-6.2-1.5-9.5-4-9.5-8.7 0-5.3 4.5-8.9 10.9-8.9 3.6 0 6.6.9 9 2.7l-2.6 5c-2.3-1.5-4.8-2.2-7-2.2-2.7 0-4.5 1.1-4.5 3 0 1.7 1.2 2.5 5.1 3.5 6.1 1.5 9.3 4.1 9.3 8.9 0 5.7-4.4 9.3-11.5 9.3-4 0-7.3-1-10-3.1L20 39zm21.2-19.2h6.7v24.4h-6.7V19.8z" fill="#205840" />
</svg>
